#N canvas 1 1253 958 1026 12;
#X obj 372 257 oscformat /test;
#X obj 112 367 list trim;
#X msg 112 400 disconnect;
#X obj 112 334 list prepend send;
#X obj 112 199 oscformat oscrouter/register;
#X floatatom 85 478 5 0 0 0 - - -;
#X obj 85 445 netsend -b;
#X floatatom 372 225 5 0 0 0 - - -;
#X obj 112 301 mrpeach/slipenc;
#X msg 85 68 connect bgo.la 55556;
#X obj 152 544 print got-message;
#X obj 152 511 oscparse;
#X obj 152 478 mrpeach/slipdec;
#X text 372 194 send a test message;
#X msg 112 166 list username password group groupw;
#X text 112 105 send the register message \, fields are username \,
password \, group name and group password;
#X connect 0 0 8 0;
#X connect 1 0 6 0;
#X connect 2 0 6 0;
#X connect 3 0 1 0;
#X connect 4 0 8 0;
#X connect 6 0 5 0;
#X connect 6 1 12 0;
#X connect 7 0 0 0;
#X connect 8 0 3 0;
#X connect 9 0 6 0;
#X connect 11 0 10 0;
#X connect 12 0 11 0;
#X connect 14 0 4 0;
